# xmcd
#
# Track frame offsets:
#	150
#	10859
#	32473
#	65328
#	84746
#	102281
#	116807
#	137825
#
# Disc length: 2148 seconds
#
# Revision: 7
# Processed by: cddbd v1.5.2PL0 Copyright (c) Steve Scherf et al.
# Submitted via: Jack! The Knife 20 Magnifico
#
DISCID=63086208
DTITLE=Mortal Sin - Mayhemic Destruction
DYEAR=1987
DGENRE=Metal
TTITLE0=The Curse
TTITLE1=Women In Leather
TTITLE2=Lebanon
TTITLE3=Liar
TTITLE4=Blood, Death, Hatred
TTITLE5=Mortal Slaughter
TTITLE6=Into The Fire
TTITLE7=Mayhemic Destruction
EXTD=Mortal Sin and John Darwish
EXTT0=Krstin
EXTT1=Carwana, Eftichiou, Campbell, Maurer
EXTT2=Krstin, Carwana, Eftichiou, Maurer
EXTT3=Krstin, Campbell, Eftichiou, Maurer
EXTT4=Krstin, Campbell, Maurer
EXTT5=Krstin, Campbell, Maurer
EXTT6=Krstin, Maurer
EXTT7=Krstin, Carwana, Eftichiou, Campbell, Maurer
PLAYORDER=
